<svg width="120" height="24" viewBox="0 0 120 24" fill="none" xmlns="http://www.w3.org/2000/svg">
<path d="M108.956 21.536C105.603 21.536 102.382 18.8696 102.382 14.672C102.382 10.448 105.524 7.808 108.982 7.808C110.724 7.808 112.388 8.5736 113.364 9.788V2H116.163V21.272H113.364V19.4504C112.361 20.744 110.698 21.536 108.956 21.536ZM109.352 18.9488C111.754 18.9488 113.523 17.0216 113.523 14.6456C113.523 12.296 111.754 10.3688 109.352 10.3688C107.002 10.3688 105.18 12.2432 105.18 14.6456C105.18 17.048 107.002 18.9488 109.352 18.9488Z" fill="white"/>
<path d="M94.2389 21.5358C90.7541 21.5358 88.8269 19.371 88.8269 15.7542V8.07178H91.7045V15.5166C91.7045 17.6814 92.7605 19.0542 94.8989 19.0542C96.7733 19.0542 98.2253 17.6286 98.2253 15.3318V8.07178H101.05V21.2718H98.2517V19.5558C97.3541 20.7702 95.9285 21.5358 94.2389 21.5358Z" fill="white"/>
<path d="M80.6716 21.5361C76.87 21.5361 73.834 18.5001 73.834 14.6721C73.834 10.8177 76.87 7.80811 80.6716 7.80811C84.4732 7.80811 87.5356 10.8177 87.5356 14.6721C87.5356 18.5001 84.4732 21.5361 80.6716 21.5361ZM80.6716 18.8961C82.942 18.8961 84.7372 16.9953 84.7372 14.6721C84.7372 12.3489 82.942 10.4481 80.6716 10.4481C78.4012 10.4481 76.6324 12.3489 76.6324 14.6721C76.6324 16.9953 78.4012 18.8961 80.6716 18.8961Z" fill="white"/>
<path d="M69.8008 21.2717V2.80273H72.5079V21.2717H69.8008Z" fill="white"/>
<path d="M60.4968 21.5248C55.032 21.5248 51.0093 17.2744 51.0093 12.0373C51.0093 6.6484 55.2091 2.5498 60.4968 2.5498C63.9882 2.5498 67.0242 4.42201 68.6687 7.205L66.2652 8.69771C65.1267 6.5725 63.1027 5.2063 60.4968 5.2063C56.6512 5.2063 53.767 8.2423 53.767 12.0373C53.767 15.7817 56.6512 18.8177 60.4715 18.8177C63.3304 18.8177 65.3797 17.2491 66.4423 15.0227L68.9217 16.3383C67.3278 19.4249 64.2665 21.5248 60.4968 21.5248Z" fill="white"/>
<path d="M42.146 10.6061V8.07173H44.39V4.95653L47.2412 3.39893V8.07173H50.0396V10.6061H47.2412V15.8597C47.2412 18.2357 47.6108 18.6053 50.0396 18.6053V21.2717H49.6172C45.6044 21.2717 44.39 20.0045 44.39 15.8861V10.6061H42.146Z" fill="white"/>
<path d="M36.2622 21.5359C33.411 21.5359 31.5102 20.5063 30.375 18.5527L32.9094 17.1799C33.675 18.4207 34.8102 19.0807 36.3942 19.0807C38.031 19.0807 38.8758 18.2887 38.8758 17.3647C38.8758 16.2823 37.2918 16.0447 35.6022 15.6751C33.3582 15.2263 30.9822 14.4871 30.9822 11.7679C30.9822 9.68232 32.9886 7.75512 36.1302 7.78152C38.691 7.78152 40.407 8.73192 41.5158 10.3423L39.1398 11.6359C38.5062 10.6855 37.5294 10.1311 36.1302 10.1311C34.5726 10.1311 33.8334 10.8439 33.8334 11.7151C33.8334 12.6655 34.9686 12.8767 36.975 13.3255C39.1926 13.8007 41.7006 14.5399 41.7006 17.3119C41.7006 19.2919 39.9318 21.5623 36.2622 21.5359Z" fill="white"/>
<path d="M22.3653 21.5361C19.0125 21.5361 15.7917 18.8697 15.7917 14.6721C15.7917 10.4481 18.9333 7.80811 22.3917 7.80811C24.1341 7.80811 25.7973 8.57371 26.7741 9.78811V8.07211H29.5989V21.2721H26.7741V19.4505C25.7709 20.7441 24.1077 21.5361 22.3653 21.5361ZM22.7613 18.9489C25.1637 18.9489 26.9325 17.0217 26.9325 14.6457C26.9325 12.2961 25.1637 10.3689 22.7613 10.3689C20.4117 10.3689 18.5901 12.2433 18.5901 14.6457C18.5901 17.0481 20.4117 18.9489 22.7613 18.9489Z" fill="white"/>
<path d="M4 21.2717V2.80273H14.4489V5.40863H6.7577V10.6963H14.4489V13.3022H6.7577V21.2717H4Z" fill="white"/>
</svg>
