<svg width="160" height="24" viewBox="0 0 160 24" fill="none" xmlns="http://www.w3.org/2000/svg">
<path d="M148.736 20.2097C145.822 20.2097 143.022 17.8921 143.022 14.2436C143.022 10.5722 145.753 8.27756 148.759 8.27756C150.273 8.27756 151.719 8.94301 152.568 9.99854V3.22937H155V19.9802H152.568V18.3969C151.696 19.5213 150.25 20.2097 148.736 20.2097ZM149.08 17.9609C151.168 17.9609 152.706 16.2858 152.706 14.2207C152.706 12.1784 151.168 10.5034 149.08 10.5034C147.038 10.5034 145.454 12.1326 145.454 14.2207C145.454 16.3088 147.038 17.9609 149.08 17.9609Z" fill="white"/>
<path d="M135.787 19.9802V8.50708H138.242V10.3198C138.862 9.14958 139.986 8.50708 141.592 8.50708H142.694V10.8476H141.202C139.114 10.8476 138.265 11.9031 138.265 14.2896V19.9802H135.787Z" fill="white"/>
<path d="M127.704 20.2097C124.79 20.2097 121.99 17.8921 121.99 14.2436C121.99 10.5722 124.721 8.27759 127.727 8.27759C129.241 8.27759 130.687 8.94303 131.536 9.99856V8.50705H133.991V19.9802H131.536V18.3969C130.664 19.5213 129.218 20.2097 127.704 20.2097ZM128.048 17.9609C130.136 17.9609 131.674 16.2859 131.674 14.2207C131.674 12.1785 130.136 10.5034 128.048 10.5034C126.006 10.5034 124.423 12.1326 124.423 14.2207C124.423 16.3088 126.006 17.9609 128.048 17.9609Z" fill="white"/>
<path d="M114.454 20.2097C111.54 20.2097 108.74 17.8921 108.74 14.2436C108.74 10.5722 111.471 8.27756 114.477 8.27756C115.991 8.27756 117.437 8.94301 118.286 9.99854V3.22937H120.718V19.9802H118.286V18.3969C117.414 19.5213 115.968 20.2097 114.454 20.2097ZM114.798 17.9609C116.886 17.9609 118.424 16.2858 118.424 14.2207C118.424 12.1784 116.886 10.5034 114.798 10.5034C112.756 10.5034 111.173 12.1326 111.173 14.2207C111.173 16.3088 112.756 17.9609 114.798 17.9609Z" fill="white"/>
<path d="M96.8672 19.9802V8.50705H99.2995V9.99856C100.08 8.94303 101.319 8.27759 102.833 8.27759C105.724 8.27759 107.491 10.1592 107.491 13.2799V19.9802H105.013V13.4864C105.013 11.6048 104.072 10.4116 102.237 10.4116C100.584 10.4116 99.3224 11.6507 99.3224 13.67V19.9802H96.8672Z" fill="white"/>
<path d="M88.784 20.2097C85.8698 20.2097 83.0704 17.8921 83.0704 14.2436C83.0704 10.5722 85.801 8.27759 88.807 8.27759C90.3214 8.27759 91.767 8.94303 92.6161 9.99856V8.50705H95.0713V19.9802H92.6161V18.3969C91.7441 19.5213 90.2985 20.2097 88.784 20.2097ZM89.1282 17.9609C91.2163 17.9609 92.7537 16.2859 92.7537 14.2207C92.7537 12.1785 91.2163 10.5034 89.1282 10.5034C87.086 10.5034 85.5027 12.1326 85.5027 14.2207C85.5027 16.3088 87.086 17.9609 89.1282 17.9609Z" fill="white"/>
<path d="M75.6894 10.7098V8.507H77.6398V5.79933L80.118 4.4455V8.507H82.5503V10.7098H80.118V15.2762C80.118 17.3413 80.4393 17.6626 82.5503 17.6626V19.9802H82.1832C78.6954 19.9802 77.6398 18.8787 77.6398 15.2991V10.7098H75.6894Z" fill="white"/>
<path d="M69.9493 20.2098C67.081 20.2098 65.1306 18.9936 63.7079 17.1579L65.9107 15.4369C66.8974 17.0202 68.2283 17.8692 69.9263 17.8692C71.785 17.8692 72.9553 16.676 72.9553 15.1845C72.9553 13.4635 71.1196 12.9128 69.1921 12.2933C66.9204 11.559 64.4651 10.6411 64.4651 7.56632C64.4651 5.01928 66.7368 3 69.8346 3C72.3816 3 73.9649 3.98669 75.2499 5.4782L73.2077 6.99266C72.4504 5.8224 71.3261 5.20285 69.8346 5.20285C68.1365 5.20285 67.0351 6.21249 67.0351 7.52043C67.0351 9.12667 68.802 9.65444 70.7295 10.2969C73.0241 11.0771 75.5252 12.0638 75.5252 15.1845C75.5252 17.7545 73.4142 20.2098 69.9493 20.2098Z" fill="white"/>
<path d="M56.6535 20.2097C53.7393 20.2097 50.9399 17.8921 50.9399 14.2436C50.9399 10.5722 53.6705 8.27756 56.6765 8.27756C58.1909 8.27756 59.6365 8.94301 60.4856 9.99854V3.22937H62.9179V19.9802H60.4856V18.3969C59.6136 19.5213 58.168 20.2097 56.6535 20.2097ZM56.9977 17.9609C59.0858 17.9609 60.6232 16.2858 60.6232 14.2207C60.6232 12.1784 59.0858 10.5034 56.9977 10.5034C54.9555 10.5034 53.3722 12.1326 53.3722 14.2207C53.3722 16.3088 54.9555 17.9609 56.9977 17.9609Z" fill="white"/>
<path d="M43.747 20.2097C40.7181 20.2097 39.043 18.3281 39.043 15.1845V8.50708H41.5441V14.9779C41.5441 16.8595 42.462 18.0528 44.3206 18.0528C45.9498 18.0528 47.2119 16.8137 47.2119 14.8173V8.50708H49.6671V19.9803H47.2348V18.4887C46.4546 19.5443 45.2155 20.2097 43.747 20.2097Z" fill="white"/>
<path d="M31.8403 20.2097C28.536 20.2097 25.8972 17.5709 25.8972 14.2436C25.8972 10.8935 28.536 8.27759 31.8403 8.27759C35.1446 8.27759 37.8064 10.8935 37.8064 14.2436C37.8064 17.5709 35.1446 20.2097 31.8403 20.2097ZM31.8403 17.9151C33.8137 17.9151 35.3741 16.2629 35.3741 14.2436C35.3741 12.2244 33.8137 10.5722 31.8403 10.5722C29.8669 10.5722 28.3295 12.2244 28.3295 14.2436C28.3295 16.2629 29.8669 17.9151 31.8403 17.9151Z" fill="white"/>
<path d="M22.1583 19.9802V3.22937H24.6136V19.9802H22.1583Z" fill="white"/>
<path d="M13.6051 20.2097C8.64871 20.2097 5.00024 16.3547 5.00024 11.6048C5.00024 6.71725 8.80934 2.99994 13.6051 2.99994C16.7717 2.99994 19.5253 4.69797 21.0168 7.22206L18.8369 8.5759C17.8043 6.64841 15.9686 5.4093 13.6051 5.4093C10.1173 5.4093 7.5014 8.16286 7.5014 11.6048C7.5014 15.0009 10.1173 17.7544 13.5822 17.7544C16.1751 17.7544 18.0338 16.3318 18.9975 14.3125L21.2463 15.5057C19.8006 18.3051 17.0241 20.2097 13.6051 20.2097Z" fill="white"/>
</svg>
